<mxfile host="app.diagrams.net" modified="2024-08-08T16:28:57.904Z" agent="Mozilla/5.0 (Windows NT 10.0; Win64; x64) AppleWebKit/537.36 (KHTML, like Gecko) Chrome/127.0.0.0 Safari/537.36" etag="_Z16NJVwwco1l6dukLLf" version="24.7.0" type="device">
  <diagram name="‫עמוד-1‬" id="ymHSA-N20BQH0bYagPwY">
    <mxGraphModel dx="890" dy="360" grid="1" gridSize="10" guides="1" tooltips="1" connect="1" arrows="1" fold="1" page="1" pageScale="1" pageWidth="827" pageHeight="1169" math="0" shadow="0">
      <root>
        <mxCell id="0" />
        <mxCell id="1" parent="0" />
        <mxCell id="lTFeG7APbJ6nW-o_ckDJ-3" value="" style="edgeStyle=orthogonalEdgeStyle;rounded=0;orthogonalLoop=1;jettySize=auto;html=1;" edge="1" parent="1" source="lTFeG7APbJ6nW-o_ckDJ-1" target="lTFeG7APbJ6nW-o_ckDJ-2">
          <mxGeometry relative="1" as="geometry" />
        </mxCell>
        <mxCell id="lTFeG7APbJ6nW-o_ckDJ-1" value="load" style="rounded=1;whiteSpace=wrap;html=1;" vertex="1" parent="1">
          <mxGeometry x="350" y="40" width="120" height="60" as="geometry" />
        </mxCell>
        <mxCell id="lTFeG7APbJ6nW-o_ckDJ-29" value="" style="edgeStyle=orthogonalEdgeStyle;rounded=0;orthogonalLoop=1;jettySize=auto;html=1;" edge="1" parent="1" source="lTFeG7APbJ6nW-o_ckDJ-2" target="lTFeG7APbJ6nW-o_ckDJ-28">
          <mxGeometry relative="1" as="geometry" />
        </mxCell>
        <mxCell id="lTFeG7APbJ6nW-o_ckDJ-30" style="edgeStyle=orthogonalEdgeStyle;rounded=0;orthogonalLoop=1;jettySize=auto;html=1;entryX=0.5;entryY=0;entryDx=0;entryDy=0;" edge="1" parent="1" source="lTFeG7APbJ6nW-o_ckDJ-2" target="lTFeG7APbJ6nW-o_ckDJ-6">
          <mxGeometry relative="1" as="geometry" />
        </mxCell>
        <mxCell id="lTFeG7APbJ6nW-o_ckDJ-2" value="chack for requerd rows, null number, and len" style="whiteSpace=wrap;html=1;rounded=1;" vertex="1" parent="1">
          <mxGeometry x="350" y="140" width="120" height="60" as="geometry" />
        </mxCell>
        <mxCell id="lTFeG7APbJ6nW-o_ckDJ-9" value="" style="edgeStyle=orthogonalEdgeStyle;rounded=0;orthogonalLoop=1;jettySize=auto;html=1;" edge="1" parent="1" source="lTFeG7APbJ6nW-o_ckDJ-6" target="lTFeG7APbJ6nW-o_ckDJ-8">
          <mxGeometry relative="1" as="geometry" />
        </mxCell>
        <mxCell id="lTFeG7APbJ6nW-o_ckDJ-10" value="" style="edgeStyle=orthogonalEdgeStyle;rounded=0;orthogonalLoop=1;jettySize=auto;html=1;" edge="1" parent="1" source="lTFeG7APbJ6nW-o_ckDJ-6" target="lTFeG7APbJ6nW-o_ckDJ-8">
          <mxGeometry relative="1" as="geometry" />
        </mxCell>
        <mxCell id="lTFeG7APbJ6nW-o_ckDJ-12" value="" style="edgeStyle=orthogonalEdgeStyle;rounded=0;orthogonalLoop=1;jettySize=auto;html=1;" edge="1" parent="1" source="lTFeG7APbJ6nW-o_ckDJ-6" target="lTFeG7APbJ6nW-o_ckDJ-11">
          <mxGeometry relative="1" as="geometry" />
        </mxCell>
        <mxCell id="lTFeG7APbJ6nW-o_ckDJ-14" value="" style="edgeStyle=orthogonalEdgeStyle;rounded=0;orthogonalLoop=1;jettySize=auto;html=1;" edge="1" parent="1" source="lTFeG7APbJ6nW-o_ckDJ-6" target="lTFeG7APbJ6nW-o_ckDJ-13">
          <mxGeometry relative="1" as="geometry">
            <Array as="points">
              <mxPoint x="410" y="349" />
              <mxPoint x="170" y="349" />
            </Array>
          </mxGeometry>
        </mxCell>
        <mxCell id="lTFeG7APbJ6nW-o_ckDJ-16" value="" style="edgeStyle=orthogonalEdgeStyle;rounded=0;orthogonalLoop=1;jettySize=auto;html=1;" edge="1" parent="1" source="lTFeG7APbJ6nW-o_ckDJ-6" target="lTFeG7APbJ6nW-o_ckDJ-15">
          <mxGeometry relative="1" as="geometry">
            <Array as="points">
              <mxPoint x="410" y="349" />
              <mxPoint x="690" y="349" />
            </Array>
          </mxGeometry>
        </mxCell>
        <mxCell id="lTFeG7APbJ6nW-o_ckDJ-6" value="drop&amp;nbsp;&lt;span style=&quot;color: rgb(206, 145, 120); font-family: Consolas, &amp;quot;Courier New&amp;quot;, monospace; font-size: 14px; white-space: pre; background-color: rgb(31, 31, 31);&quot;&gt;Contract&lt;/span&gt;&amp;nbsp;NA&amp;nbsp;&amp;nbsp;" style="whiteSpace=wrap;html=1;rounded=1;" vertex="1" parent="1">
          <mxGeometry x="350" y="269" width="120" height="60" as="geometry" />
        </mxCell>
        <mxCell id="lTFeG7APbJ6nW-o_ckDJ-19" style="edgeStyle=orthogonalEdgeStyle;rounded=0;orthogonalLoop=1;jettySize=auto;html=1;entryX=0.5;entryY=0;entryDx=0;entryDy=0;" edge="1" parent="1" source="lTFeG7APbJ6nW-o_ckDJ-8" target="lTFeG7APbJ6nW-o_ckDJ-17">
          <mxGeometry relative="1" as="geometry" />
        </mxCell>
        <mxCell id="lTFeG7APbJ6nW-o_ckDJ-8" value="transfoem&amp;nbsp;&lt;span style=&quot;color: rgb(206, 145, 120); background-color: rgb(31, 31, 31); font-family: Consolas, &amp;quot;Courier New&amp;quot;, monospace; font-size: 14px; white-space: pre;&quot;&gt;TotalCharges&lt;/span&gt;" style="rounded=1;whiteSpace=wrap;html=1;" vertex="1" parent="1">
          <mxGeometry x="440" y="379" width="170" height="60" as="geometry" />
        </mxCell>
        <mxCell id="lTFeG7APbJ6nW-o_ckDJ-18" value="" style="edgeStyle=orthogonalEdgeStyle;rounded=0;orthogonalLoop=1;jettySize=auto;html=1;" edge="1" parent="1" source="lTFeG7APbJ6nW-o_ckDJ-11" target="lTFeG7APbJ6nW-o_ckDJ-17">
          <mxGeometry relative="1" as="geometry" />
        </mxCell>
        <mxCell id="lTFeG7APbJ6nW-o_ckDJ-11" value="transform&amp;nbsp;&lt;span style=&quot;color: rgb(206, 145, 120); background-color: rgb(31, 31, 31); font-family: Consolas, &amp;quot;Courier New&amp;quot;, monospace; font-size: 14px; white-space: pre;&quot;&gt;PhoneService&lt;/span&gt;" style="whiteSpace=wrap;html=1;rounded=1;" vertex="1" parent="1">
          <mxGeometry x="254" y="379" width="160" height="60" as="geometry" />
        </mxCell>
        <mxCell id="lTFeG7APbJ6nW-o_ckDJ-21" style="edgeStyle=orthogonalEdgeStyle;rounded=0;orthogonalLoop=1;jettySize=auto;html=1;entryX=0;entryY=0.5;entryDx=0;entryDy=0;" edge="1" parent="1" source="lTFeG7APbJ6nW-o_ckDJ-13" target="lTFeG7APbJ6nW-o_ckDJ-17">
          <mxGeometry relative="1" as="geometry">
            <mxPoint x="230" y="589" as="targetPoint" />
            <Array as="points">
              <mxPoint x="170" y="514" />
              <mxPoint x="231" y="514" />
              <mxPoint x="231" y="559" />
            </Array>
          </mxGeometry>
        </mxCell>
        <mxCell id="lTFeG7APbJ6nW-o_ckDJ-13" value="transform&amp;nbsp;&lt;span style=&quot;color: rgb(206, 145, 120); background-color: rgb(31, 31, 31); font-family: Consolas, &amp;quot;Courier New&amp;quot;, monospace; font-size: 14px; white-space: pre;&quot;&gt;tenure&lt;/span&gt;" style="whiteSpace=wrap;html=1;rounded=1;" vertex="1" parent="1">
          <mxGeometry x="110" y="379" width="120" height="60" as="geometry" />
        </mxCell>
        <mxCell id="lTFeG7APbJ6nW-o_ckDJ-20" style="edgeStyle=orthogonalEdgeStyle;rounded=0;orthogonalLoop=1;jettySize=auto;html=1;" edge="1" parent="1" source="lTFeG7APbJ6nW-o_ckDJ-15">
          <mxGeometry relative="1" as="geometry">
            <mxPoint x="680" y="549" as="targetPoint" />
            <Array as="points">
              <mxPoint x="490" y="549" />
              <mxPoint x="490" y="549" />
            </Array>
          </mxGeometry>
        </mxCell>
        <mxCell id="lTFeG7APbJ6nW-o_ckDJ-15" value="transform&amp;nbsp;&lt;span style=&quot;color: rgb(206, 145, 120); background-color: rgb(31, 31, 31); font-family: Consolas, &amp;quot;Courier New&amp;quot;, monospace; font-size: 14px; white-space: pre;&quot;&gt;Contract&lt;/span&gt;" style="whiteSpace=wrap;html=1;rounded=1;" vertex="1" parent="1">
          <mxGeometry x="630" y="379" width="120" height="60" as="geometry" />
        </mxCell>
        <mxCell id="lTFeG7APbJ6nW-o_ckDJ-23" value="" style="edgeStyle=orthogonalEdgeStyle;rounded=0;orthogonalLoop=1;jettySize=auto;html=1;" edge="1" parent="1" source="lTFeG7APbJ6nW-o_ckDJ-17" target="lTFeG7APbJ6nW-o_ckDJ-22">
          <mxGeometry relative="1" as="geometry" />
        </mxCell>
        <mxCell id="lTFeG7APbJ6nW-o_ckDJ-17" value="aggragte" style="whiteSpace=wrap;html=1;rounded=1;" vertex="1" parent="1">
          <mxGeometry x="370" y="529" width="120" height="60" as="geometry" />
        </mxCell>
        <mxCell id="lTFeG7APbJ6nW-o_ckDJ-25" value="" style="edgeStyle=orthogonalEdgeStyle;rounded=0;orthogonalLoop=1;jettySize=auto;html=1;" edge="1" parent="1" source="lTFeG7APbJ6nW-o_ckDJ-22" target="lTFeG7APbJ6nW-o_ckDJ-24">
          <mxGeometry relative="1" as="geometry" />
        </mxCell>
        <mxCell id="lTFeG7APbJ6nW-o_ckDJ-27" value="" style="edgeStyle=orthogonalEdgeStyle;rounded=0;orthogonalLoop=1;jettySize=auto;html=1;" edge="1" parent="1" source="lTFeG7APbJ6nW-o_ckDJ-22" target="lTFeG7APbJ6nW-o_ckDJ-26">
          <mxGeometry relative="1" as="geometry" />
        </mxCell>
        <mxCell id="lTFeG7APbJ6nW-o_ckDJ-22" value="predict" style="whiteSpace=wrap;html=1;rounded=1;" vertex="1" parent="1">
          <mxGeometry x="370" y="629" width="120" height="60" as="geometry" />
        </mxCell>
        <mxCell id="lTFeG7APbJ6nW-o_ckDJ-24" value="csv/sql write" style="whiteSpace=wrap;html=1;rounded=1;" vertex="1" parent="1">
          <mxGeometry x="370" y="729" width="120" height="60" as="geometry" />
        </mxCell>
        <mxCell id="lTFeG7APbJ6nW-o_ckDJ-26" value="monitor results" style="whiteSpace=wrap;html=1;rounded=1;" vertex="1" parent="1">
          <mxGeometry x="570" y="629" width="120" height="60" as="geometry" />
        </mxCell>
        <mxCell id="lTFeG7APbJ6nW-o_ckDJ-28" value="&#xa;&lt;span style=&quot;color: rgb(0, 0, 0); font-family: Helvetica; font-size: 12px; font-style: normal; font-variant-ligatures: normal; font-variant-caps: normal; font-weight: 400; letter-spacing: normal; orphans: 2; text-align: center; text-indent: 0px; text-transform: none; widows: 2; word-spacing: 0px; -webkit-text-stroke-width: 0px; white-space: normal; background-color: rgb(251, 251, 251); text-decoration-thickness: initial; text-decoration-style: initial; text-decoration-color: initial; display: inline !important; float: none;&quot;&gt;monitor data&lt;/span&gt;&#xa;&#xa;" style="whiteSpace=wrap;html=1;rounded=1;" vertex="1" parent="1">
          <mxGeometry x="550" y="140" width="120" height="60" as="geometry" />
        </mxCell>
      </root>
    </mxGraphModel>
  </diagram>
</mxfile>
